<?xml version="1.0" encoding="UTF-8" standalone="no"?>
<!-- Created with Inkscape (http://www.inkscape.org/) -->

<svg
   width="136.05984mm"
   height="111.67134mm"
   viewBox="0 0 136.05985 111.67134"
   version="1.1"
   id="svg5"
   xml:space="preserve"
   inkscape:version="1.2.2 (b0a8486541, 2022-12-01)"
   sodipodi:docname="carpetas.svg"
   inkscape:export-filename="carpetas.pdf"
   inkscape:export-xdpi="120"
   inkscape:export-ydpi="120"
   xmlns:inkscape="http://www.inkscape.org/namespaces/inkscape"
   xmlns:sodipodi="http://sodipodi.sourceforge.net/DTD/sodipodi-0.dtd"
   xmlns="http://www.w3.org/2000/svg"
   xmlns:svg="http://www.w3.org/2000/svg"><sodipodi:namedview
     id="namedview7"
     pagecolor="#ffffff"
     bordercolor="#666666"
     borderopacity="1.0"
     inkscape:showpageshadow="2"
     inkscape:pageopacity="0.0"
     inkscape:pagecheckerboard="0"
     inkscape:deskcolor="#d1d1d1"
     inkscape:document-units="mm"
     showgrid="false"
     inkscape:zoom="2"
     inkscape:cx="270.5"
     inkscape:cy="99.25"
     inkscape:window-width="1920"
     inkscape:window-height="1011"
     inkscape:window-x="0"
     inkscape:window-y="32"
     inkscape:window-maximized="1"
     inkscape:current-layer="layer1"
     showguides="true" /><defs
     id="defs2"><marker
       orient="auto-start-reverse"
       refY="0"
       refX="0"
       id="three_dots"
       inkscape:stockid="three_dots"
       style="overflow:visible"
       markerWidth="5.5"
       markerHeight="1.5"
       viewBox="0 0 5.5 1.5"
       inkscape:isstock="true"
       inkscape:collect="always"
       preserveAspectRatio="xMidYMid"><g
         id="g1246"
         transform="scale(0.5)"><circle
           cx="4"
           cy="0"
           r="1"
           id="circle237"
           style="fill:context-stroke;stroke:context-stroke" /><circle
           cx="8"
           cy="0"
           r="1"
           id="circle239"
           style="fill:context-stroke;stroke:context-stroke" /><circle
           cx="12"
           cy="0"
           r="1"
           id="circle241"
           style="fill:context-stroke;stroke:context-stroke" /></g></marker><rect
       x="70.5625"
       y="83.58194"
       width="151.94931"
       height="82.5242"
       id="rect677" /><clipPath
       clipPathUnits="userSpaceOnUse"
       id="clipPath704"><path
         d="M 0,0 H 500 V 500 H 0 Z"
         id="path702" /></clipPath><clipPath
       clipPathUnits="userSpaceOnUse"
       id="clipPath712"><path
         d="M -9.6875,507.119 H 509.687 V -32.4861 H -9.6875 Z"
         id="path710" /></clipPath><clipPath
       clipPathUnits="userSpaceOnUse"
       id="clipPath780"><path
         d="M -9.6875,512.5 H 509.687 V -8.125 H -9.6875 Z"
         id="path778" /></clipPath><linearGradient
       x1="0"
       y1="0"
       x2="1"
       y2="0"
       gradientUnits="userSpaceOnUse"
       gradientTransform="matrix(520,-520,-520,-520,-10.000007,512.1875)"
       spreadMethod="pad"
       id="linearGradient790"><stop
         style="stop-opacity:1;stop-color:#ffffff"
         offset="0"
         id="stop786" /><stop
         style="stop-opacity:1;stop-color:#818080"
         offset="1"
         id="stop788" /></linearGradient><clipPath
       clipPathUnits="userSpaceOnUse"
       id="clipPath1060"><path
         d="M 0,500 H 500 V 0 H 0 Z"
         id="path1058" /></clipPath><clipPath
       clipPathUnits="userSpaceOnUse"
       id="clipPath1713"><g
         id="g1717"
         style="stroke-width:1"><path
           d="M 0,500 H 500 V 0 H 0 Z"
           id="path1715"
           style="stroke-width:1" /></g></clipPath><clipPath
       clipPathUnits="userSpaceOnUse"
       id="clipPath1719"><g
         id="g1723"
         style="stroke-width:1"
         transform="translate(-219.2969,-322.1255)"><path
           d="M 0,500 H 500 V 0 H 0 Z"
           id="path1721"
           style="stroke-width:1" /></g></clipPath><clipPath
       clipPathUnits="userSpaceOnUse"
       id="clipPath1725"><g
         id="g1729"
         style="stroke-width:1"
         transform="translate(-243.9604,-322.1367)"><path
           d="M 0,500 H 500 V 0 H 0 Z"
           id="path1727"
           style="stroke-width:1" /></g></clipPath><clipPath
       clipPathUnits="userSpaceOnUse"
       id="clipPath1731"><g
         id="g1735"
         style="stroke-width:1"
         transform="translate(-163.7881,-318.3623)"><path
           d="M 0,500 H 500 V 0 H 0 Z"
           id="path1733"
           style="stroke-width:1" /></g></clipPath><clipPath
       clipPathUnits="userSpaceOnUse"
       id="clipPath1737"><g
         id="g1741"
         style="stroke-width:1"
         transform="translate(-180.2026,-326.2407)"><path
           d="M 0,500 H 500 V 0 H 0 Z"
           id="path1739"
           style="stroke-width:1" /></g></clipPath><clipPath
       clipPathUnits="userSpaceOnUse"
       id="clipPath1743"><g
         id="g1747"
         style="stroke-width:1"
         transform="translate(-128.4824,-318.416)"><path
           d="M 0,500 H 500 V 0 H 0 Z"
           id="path1745"
           style="stroke-width:1" /></g></clipPath><clipPath
       clipPathUnits="userSpaceOnUse"
       id="clipPath1749"><g
         id="g1753"
         style="stroke-width:1"
         transform="translate(-61.1738,-349.2881)"><path
           d="M 0,500 H 500 V 0 H 0 Z"
           id="path1751"
           style="stroke-width:1" /></g></clipPath><clipPath
       clipPathUnits="userSpaceOnUse"
       id="clipPath1755"><g
         id="g1759"
         style="stroke-width:1"
         transform="translate(-426.2354,-347.1689)"><path
           d="M 0,500 H 500 V 0 H 0 Z"
           id="path1757"
           style="stroke-width:1" /></g></clipPath><clipPath
       clipPathUnits="userSpaceOnUse"
       id="clipPath1761"><g
         id="g1765"
         style="stroke-width:1"><path
           d="M 0,500 H 500 V 0 H 0 Z"
           id="path1763"
           style="stroke-width:1" /></g></clipPath><clipPath
       clipPathUnits="userSpaceOnUse"
       id="clipPath1767"><g
         id="g1771"
         style="stroke-width:1"
         transform="translate(-189.3101,-349.3242)"><path
           d="M 0,500 H 500 V 0 H 0 Z"
           id="path1769"
           style="stroke-width:1" /></g></clipPath><clipPath
       clipPathUnits="userSpaceOnUse"
       id="clipPath1773"><g
         id="g1777"
         style="stroke-width:1"
         transform="translate(-194.957,-367.8062)"><path
           d="M 0,500 H 500 V 0 H 0 Z"
           id="path1775"
           style="stroke-width:1" /></g></clipPath><clipPath
       clipPathUnits="userSpaceOnUse"
       id="clipPath1779"><g
         id="g1783"
         style="stroke-width:1"
         transform="translate(-182.3848,-356.9966)"><path
           d="M 0,500 H 500 V 0 H 0 Z"
           id="path1781"
           style="stroke-width:1" /></g></clipPath><clipPath
       clipPathUnits="userSpaceOnUse"
       id="clipPath1785"><g
         id="g1789"
         style="stroke-width:1"
         transform="translate(-293.2656,-371.0864)"><path
           d="M 0,500 H 500 V 0 H 0 Z"
           id="path1787"
           style="stroke-width:1" /></g></clipPath><clipPath
       clipPathUnits="userSpaceOnUse"
       id="clipPath1791"><g
         id="g1795"
         style="stroke-width:1"
         transform="translate(-413.6504,-320.3345)"><path
           d="M 0,500 H 500 V 0 H 0 Z"
           id="path1793"
           style="stroke-width:1" /></g></clipPath><clipPath
       clipPathUnits="userSpaceOnUse"
       id="clipPath1797"><g
         id="g1801"
         style="stroke-width:1"
         transform="translate(-95.1055,-125.0322)"><path
           d="M 0,500 H 500 V 0 H 0 Z"
           id="path1799"
           style="stroke-width:1" /></g></clipPath><clipPath
       clipPathUnits="userSpaceOnUse"
       id="clipPath1803"><g
         id="g1807"
         style="stroke-width:1"
         transform="translate(-118.77,-119.2295)"><path
           d="M 0,500 H 500 V 0 H 0 Z"
           id="path1805"
           style="stroke-width:1" /></g></clipPath><clipPath
       clipPathUnits="userSpaceOnUse"
       id="clipPath1809"><g
         id="g1813"
         style="stroke-width:1"
         transform="translate(-205.0356,-122.5879)"><path
           d="M 0,500 H 500 V 0 H 0 Z"
           id="path1811"
           style="stroke-width:1" /></g></clipPath><clipPath
       clipPathUnits="userSpaceOnUse"
       id="clipPath1815"><g
         id="g1819"
         style="stroke-width:1"
         transform="translate(-206.374,-126.2451)"><path
           d="M 0,500 H 500 V 0 H 0 Z"
           id="path1817"
           style="stroke-width:1" /></g></clipPath><clipPath
       clipPathUnits="userSpaceOnUse"
       id="clipPath1821"><g
         id="g1825"
         style="stroke-width:1"
         transform="translate(-274.3203,-127.6104)"><path
           d="M 0,500 H 500 V 0 H 0 Z"
           id="path1823"
           style="stroke-width:1" /></g></clipPath><clipPath
       clipPathUnits="userSpaceOnUse"
       id="clipPath1827"><g
         id="g1831"
         style="stroke-width:1"
         transform="translate(-248.7021,-123.0713)"><path
           d="M 0,500 H 500 V 0 H 0 Z"
           id="path1829"
           style="stroke-width:1" /></g></clipPath><clipPath
       clipPathUnits="userSpaceOnUse"
       id="clipPath1833"><g
         id="g1837"
         style="stroke-width:1"
         transform="translate(-441.584,-118.1846)"><path
           d="M 0,500 H 500 V 0 H 0 Z"
           id="path1835"
           style="stroke-width:1" /></g></clipPath><clipPath
       clipPathUnits="userSpaceOnUse"
       id="clipPath1839"><g
         id="g1843"
         style="stroke-width:1"
         transform="translate(-424.3574,-118.1836)"><path
           d="M 0,500 H 500 V 0 H 0 Z"
           id="path1841"
           style="stroke-width:1" /></g></clipPath><clipPath
       clipPathUnits="userSpaceOnUse"
       id="clipPath1845"><g
         id="g1849"
         style="stroke-width:1"
         transform="translate(-407.123,-118.2109)"><path
           d="M 0,500 H 500 V 0 H 0 Z"
           id="path1847"
           style="stroke-width:1" /></g></clipPath><clipPath
       clipPathUnits="userSpaceOnUse"
       id="clipPath1851"><g
         id="g1855"
         style="stroke-width:1"
         transform="translate(-340.6191,-118.1758)"><path
           d="M 0,500 H 500 V 0 H 0 Z"
           id="path1853"
           style="stroke-width:1" /></g></clipPath><clipPath
       clipPathUnits="userSpaceOnUse"
       id="clipPath1857"><g
         id="g1861"
         style="stroke-width:1"
         transform="translate(-379.2393,-127.043)"><path
           d="M 0,500 H 500 V 0 H 0 Z"
           id="path1859"
           style="stroke-width:1" /></g></clipPath><clipPath
       clipPathUnits="userSpaceOnUse"
       id="clipPath1863"><g
         id="g1867"
         style="stroke-width:1"
         transform="translate(-345.9727,-127.0391)"><path
           d="M 0,500 H 500 V 0 H 0 Z"
           id="path1865"
           style="stroke-width:1" /></g></clipPath><clipPath
       clipPathUnits="userSpaceOnUse"
       id="clipPath1869"><g
         id="g1873"
         style="stroke-width:1"
         transform="translate(-278.6631,-118.2139)"><path
           d="M 0,500 H 500 V 0 H 0 Z"
           id="path1871"
           style="stroke-width:1" /></g></clipPath><clipPath
       clipPathUnits="userSpaceOnUse"
       id="clipPath1875"><g
         id="g1879"
         style="stroke-width:1"
         transform="translate(-306.9531,-118.2168)"><path
           d="M 0,500 H 500 V 0 H 0 Z"
           id="path1877"
           style="stroke-width:1" /></g></clipPath><clipPath
       clipPathUnits="userSpaceOnUse"
       id="clipPath1881"><g
         id="g1885"
         style="stroke-width:1"
         transform="translate(-323.8076,-118.2197)"><path
           d="M 0,500 H 500 V 0 H 0 Z"
           id="path1883"
           style="stroke-width:1" /></g></clipPath><clipPath
       clipPathUnits="userSpaceOnUse"
       id="clipPath1887"><g
         id="g1891"
         style="stroke-width:1"
         transform="translate(-362.5205,-118.3125)"><path
           d="M 0,500 H 500 V 0 H 0 Z"
           id="path1889"
           style="stroke-width:1" /></g></clipPath><clipPath
       clipPathUnits="userSpaceOnUse"
       id="clipPath1893"><g
         id="g1897"
         style="stroke-width:1"
         transform="translate(-297.9531,-97.478501)"><path
           d="M 0,500 H 500 V 0 H 0 Z"
           id="path1895"
           style="stroke-width:1" /></g></clipPath><clipPath
       clipPathUnits="userSpaceOnUse"
       id="clipPath1899"><g
         id="g1903"
         style="stroke-width:1"
         transform="translate(-303.2881,-97.509801)"><path
           d="M 0,500 H 500 V 0 H 0 Z"
           id="path1901"
           style="stroke-width:1" /></g></clipPath><clipPath
       clipPathUnits="userSpaceOnUse"
       id="clipPath1905"><g
         id="g1909"
         style="stroke-width:1"
         transform="translate(-331.6387,-97.476601)"><path
           d="M 0,500 H 500 V 0 H 0 Z"
           id="path1907"
           style="stroke-width:1" /></g></clipPath><clipPath
       clipPathUnits="userSpaceOnUse"
       id="clipPath1911"><g
         id="g1915"
         style="stroke-width:1"
         transform="translate(-336.9873,-106.3027)"><path
           d="M 0,500 H 500 V 0 H 0 Z"
           id="path1913"
           style="stroke-width:1" /></g></clipPath><clipPath
       clipPathUnits="userSpaceOnUse"
       id="clipPath1917"><g
         id="g1921"
         style="stroke-width:1"
         transform="translate(-353.7793,-106.3066)"><path
           d="M 0,500 H 500 V 0 H 0 Z"
           id="path1919"
           style="stroke-width:1" /></g></clipPath><clipPath
       clipPathUnits="userSpaceOnUse"
       id="clipPath1923"><g
         id="g1927"
         style="stroke-width:1"
         transform="translate(-398.5293,-97.441401)"><path
           d="M 0,500 H 500 V 0 H 0 Z"
           id="path1925"
           style="stroke-width:1" /></g></clipPath><clipPath
       clipPathUnits="userSpaceOnUse"
       id="clipPath1929"><g
         id="g1933"
         style="stroke-width:1"
         transform="translate(-403.4687,-97.491201)"><path
           d="M 0,500 H 500 V 0 H 0 Z"
           id="path1931"
           style="stroke-width:1" /></g></clipPath><clipPath
       clipPathUnits="userSpaceOnUse"
       id="clipPath1935"><g
         id="g1939"
         style="stroke-width:1"
         transform="translate(-432.1982,-97.472701)"><path
           d="M 0,500 H 500 V 0 H 0 Z"
           id="path1937"
           style="stroke-width:1" /></g></clipPath><clipPath
       clipPathUnits="userSpaceOnUse"
       id="clipPath1941"><g
         id="g1945"
         style="stroke-width:1"
         transform="translate(-381.6484,-97.540001)"><path
           d="M 0,500 H 500 V 0 H 0 Z"
           id="path1943"
           style="stroke-width:1" /></g></clipPath><clipPath
       clipPathUnits="userSpaceOnUse"
       id="clipPath1947"><g
         id="g1951"
         style="stroke-width:1"
         transform="translate(-101.7168,-99.590801)"><path
           d="M 0,500 H 500 V 0 H 0 Z"
           id="path1949"
           style="stroke-width:1" /></g></clipPath><clipPath
       clipPathUnits="userSpaceOnUse"
       id="clipPath1953"><g
         id="g1957"
         style="stroke-width:1"
         transform="translate(-92.5498,-102.8037)"><path
           d="M 0,500 H 500 V 0 H 0 Z"
           id="path1955"
           style="stroke-width:1" /></g></clipPath><clipPath
       clipPathUnits="userSpaceOnUse"
       id="clipPath1959"><g
         id="g1963"
         style="stroke-width:1"
         transform="translate(-189.2964,-101.7646)"><path
           d="M 0,500 H 500 V 0 H 0 Z"
           id="path1961"
           style="stroke-width:1" /></g></clipPath><clipPath
       clipPathUnits="userSpaceOnUse"
       id="clipPath1965"><g
         id="g1969"
         style="stroke-width:1"
         transform="translate(-207.7568,-86.640601)"><path
           d="M 0,500 H 500 V 0 H 0 Z"
           id="path1967"
           style="stroke-width:1" /></g></clipPath><clipPath
       clipPathUnits="userSpaceOnUse"
       id="clipPath2325"><g
         id="g2331"
         style="stroke-width:1"><g
           id="g2329"
           style="stroke-width:1"><path
             d="M 0,500 H 500 V 0 H 0 Z"
             id="path2327"
             style="stroke-width:1" /></g></g></clipPath><clipPath
       clipPathUnits="userSpaceOnUse"
       id="clipPath2340"><g
         id="g2346"
         style="stroke-width:1"><g
           id="g2344"
           style="stroke-width:1"><path
             d="M 0,500 H 500 V 0 H 0 Z"
             id="path2342"
             style="stroke-width:1" /></g></g></clipPath><clipPath
       clipPathUnits="userSpaceOnUse"
       id="clipPath2355"><g
         id="g2361"
         style="stroke-width:1"><g
           id="g2359"
           style="stroke-width:1"><path
             d="M 0,500 H 500 V 0 H 0 Z"
             id="path2357"
             style="stroke-width:1" /></g></g></clipPath><clipPath
       clipPathUnits="userSpaceOnUse"
       id="clipPath2370"><path
         d="m 251.6104,232.668 c -0.182,-1.747 -0.969,-2.762 -2.27,-3.911 0.169,1.798 0.693,2.963 2.27,3.911"
         style="fill:#000000;fill-opacity:1;fill-rule:nonzero;stroke:none;stroke-width:0.999998"
         id="path2372" /></clipPath><clipPath
       clipPathUnits="userSpaceOnUse"
       id="clipPath2381"><g
         id="g2387"
         style="stroke-width:1"><g
           id="g2385"
           style="stroke-width:1"><path
             d="M 0,500 H 500 V 0 H 0 Z"
             id="path2383"
             style="stroke-width:1" /></g></g></clipPath><clipPath
       clipPathUnits="userSpaceOnUse"
       id="clipPath2396"><g
         id="g2402"
         style="stroke-width:1"><g
           id="g2400"
           style="stroke-width:1"><path
             d="M 0,500 H 500 V 0 H 0 Z"
             id="path2398"
             style="stroke-width:1" /></g></g></clipPath><clipPath
       clipPathUnits="userSpaceOnUse"
       id="clipPath2411"><g
         id="g2417"
         style="stroke-width:1"><g
           id="g2415"
           style="stroke-width:1"><path
             d="M 0,500 H 500 V 0 H 0 Z"
             id="path2413"
             style="stroke-width:1" /></g></g></clipPath><clipPath
       clipPathUnits="userSpaceOnUse"
       id="clipPath2426"><g
         id="g2432"
         style="stroke-width:1"><g
           id="g2430"
           style="stroke-width:1"><path
             d="M 0,500 H 500 V 0 H 0 Z"
             id="path2428"
             style="stroke-width:1" /></g></g></clipPath><clipPath
       clipPathUnits="userSpaceOnUse"
       id="clipPath2441"><g
         id="g2447"
         style="stroke-width:1"><g
           id="g2445"
           style="stroke-width:1"><path
             d="M 0,500 H 500 V 0 H 0 Z"
             id="path2443"
             style="stroke-width:1" /></g></g></clipPath><clipPath
       clipPathUnits="userSpaceOnUse"
       id="clipPath2456"><g
         id="g2462"
         style="stroke-width:1"><g
           id="g2460"
           style="stroke-width:1"><path
             d="M 0,500 H 500 V 0 H 0 Z"
             id="path2458"
             style="stroke-width:1" /></g></g></clipPath><clipPath
       clipPathUnits="userSpaceOnUse"
       id="clipPath2471"><g
         id="g2477"
         style="stroke-width:1"><g
           id="g2475"
           style="stroke-width:1"><path
             d="M 0,500 H 500 V 0 H 0 Z"
             id="path2473"
             style="stroke-width:1" /></g></g></clipPath><clipPath
       clipPathUnits="userSpaceOnUse"
       id="clipPath2486"><path
         d="m 199.7646,194.6211 c 1.661,-1.287 3.636,-1.031 5.746,-1.173 -2.275,-1.655 -4.797,-1.134 -5.746,1.173"
         style="fill:#000000;fill-opacity:1;fill-rule:nonzero;stroke:none;stroke-width:0.999998"
         id="path2488" /></clipPath><clipPath
       clipPathUnits="userSpaceOnUse"
       id="clipPath2497"><g
         id="g2503"
         style="stroke-width:1"><g
           id="g2501"
           style="stroke-width:1"><path
             d="M 0,500 H 500 V 0 H 0 Z"
             id="path2499"
             style="stroke-width:1" /></g></g></clipPath><clipPath
       clipPathUnits="userSpaceOnUse"
       id="clipPath2512"><g
         id="g2518"
         style="stroke-width:1"><g
           id="g2516"
           style="stroke-width:1"><path
             d="M 0,500 H 500 V 0 H 0 Z"
             id="path2514"
             style="stroke-width:1" /></g></g></clipPath><clipPath
       clipPathUnits="userSpaceOnUse"
       id="clipPath2527"><g
         id="g2533"
         style="stroke-width:1"><g
           id="g2531"
           style="stroke-width:1"><path
             d="M 0,500 H 500 V 0 H 0 Z"
             id="path2529"
             style="stroke-width:1" /></g></g></clipPath><clipPath
       clipPathUnits="userSpaceOnUse"
       id="clipPath2542"><g
         id="g2548"
         style="stroke-width:1"><g
           id="g2546"
           style="stroke-width:1"><path
             d="M 0,500 H 500 V 0 H 0 Z"
             id="path2544"
             style="stroke-width:1" /></g></g></clipPath><clipPath
       clipPathUnits="userSpaceOnUse"
       id="clipPath2557"><g
         id="g2563"
         style="stroke-width:1"><g
           id="g2561"
           style="stroke-width:1"><path
             d="M 0,500 H 500 V 0 H 0 Z"
             id="path2559"
             style="stroke-width:1" /></g></g></clipPath></defs><g
     inkscape:label="Layer 1"
     inkscape:groupmode="layer"
     id="layer1"
     transform="translate(-70.3126,-61.737399)"><text
       xml:space="preserve"
       style="font-style:normal;font-variant:normal;font-weight:normal;font-stretch:normal;font-size:2.82222px;line-height:1.25;font-family:'DejaVu Sans Mono';-inkscape-font-specification:'DejaVu Sans Mono, Normal';font-variant-ligatures:normal;font-variant-caps:normal;font-variant-numeric:normal;font-variant-east-asian:normal;letter-spacing:0px;word-spacing:0px;fill:#000000;fill-opacity:1;stroke:none;stroke-width:0.264583"
       x="89.731026"
       y="77.030029"
       id="text862"><tspan
         sodipodi:role="line"
         style="font-style:normal;font-variant:normal;font-weight:normal;font-stretch:normal;font-size:2.82222px;font-family:'DejaVu Sans Mono';-inkscape-font-specification:'DejaVu Sans Mono, Normal';font-variant-ligatures:normal;font-variant-caps:normal;font-variant-numeric:normal;font-variant-east-asian:normal;stroke-width:0.264583"
         x="89.731026"
         y="77.030029"
         id="tspan860">2023-05-01</tspan></text><g
       aria-label="ðŸ–¹"
       id="text683"
       style="font-size:10.5833px;line-height:1.25;letter-spacing:0px;word-spacing:0px;stroke-width:0.264583"
       transform="translate(-36.982599)"><path
         d="m 128.40255,81.97176 v -3.707575 h 1.96506 q 0.17215,0.05878 0.31911,0.146959 0.15116,0.08817 0.25613,0.193147 0.11337,0.104971 0.20155,0.235134 0.0882,0.130165 0.20574,0.377897 v 2.754438 z m 0.10497,-0.109169 h 2.73345 v -2.649468 q -0.0755,-0.06718 -0.14696,-0.113369 -0.0672,-0.05039 -0.19735,-0.09238 -0.10497,-0.02939 -0.23513,-0.04199 -0.12597,-0.0126 -0.21414,-0.01679 l -0.0882,-0.0042 0.008,-0.08817 q 0.0168,-0.14696 0.0127,-0.264527 0,-0.121766 -0.0167,-0.222539 h -1.85589 z m 0.3611,-2.683059 q -0.0336,0 -0.0588,-0.02519 -0.0252,-0.02519 -0.0252,-0.05458 0,-0.0336 0.0252,-0.05878 0.0252,-0.02519 0.0588,-0.02519 h 0.86076 q 0.0336,0 0.0546,0.02519 0.0252,0.02519 0.0252,0.05878 0,0.02939 -0.0252,0.05458 -0.021,0.02519 -0.0546,0.02519 z m 0,0.453474 q -0.0336,0 -0.0588,-0.02519 -0.0252,-0.02519 -0.0252,-0.05878 0,-0.0336 0.0252,-0.05459 0.0252,-0.02519 0.0588,-0.02519 h 2.01544 q 0.0336,0 0.0588,0.02519 0.0252,0.021 0.0252,0.05459 0,0.0336 -0.0252,0.05878 -0.0252,0.02519 -0.0588,0.02519 z m 0,0.449276 q -0.0336,0 -0.0588,-0.02519 -0.0252,-0.02519 -0.0252,-0.05878 0,-0.03359 0.0252,-0.05458 0.0252,-0.02519 0.0588,-0.02519 h 1.60396 q 0.0336,0 0.0588,0.02519 0.0252,0.021 0.0252,0.05458 0,0.0336 -0.0252,0.05878 -0.0252,0.02519 -0.0588,0.02519 z m 0,0.449277 q -0.0336,0 -0.0588,-0.02519 -0.0252,-0.02519 -0.0252,-0.05878 0,-0.0336 0.0252,-0.05459 0.0252,-0.02519 0.0588,-0.02519 h 2.01544 q 0.0336,0 0.0588,0.02519 0.0252,0.021 0.0252,0.05459 0,0.03359 -0.0252,0.05878 -0.0252,0.02519 -0.0588,0.02519 z m 0,0.449275 q -0.0336,0 -0.0588,-0.021 -0.0252,-0.02519 -0.0252,-0.05878 0,-0.0336 0.0252,-0.05878 0.0252,-0.02519 0.0588,-0.02519 h 1.8097 q 0.0336,0 0.0588,0.02519 0.0252,0.02519 0.0252,0.05878 0,0.0336 -0.0252,0.05878 -0.0252,0.021 -0.0588,0.021 z"
         id="path689"
         style="stroke-width:0.264583" /><path
         d="m 128.40255,86.377565 v -3.707576 h 1.96506 q 0.17215,0.05878 0.31911,0.14696 0.15116,0.08817 0.25613,0.193146 0.11337,0.104971 0.20155,0.235135 0.0882,0.130164 0.20574,0.377896 v 2.754439 z m 0.10497,-0.10917 h 2.73345 v -2.649468 q -0.0755,-0.06718 -0.14696,-0.113368 -0.0672,-0.05039 -0.19735,-0.09238 -0.10497,-0.02939 -0.23513,-0.04199 -0.12597,-0.0126 -0.21414,-0.01679 l -0.0882,-0.0042 0.008,-0.08817 q 0.0168,-0.146961 0.0127,-0.264528 0,-0.121766 -0.0167,-0.222539 h -1.85589 z m 0.3611,-2.683059 q -0.0336,0 -0.0588,-0.02519 -0.0252,-0.02519 -0.0252,-0.05458 0,-0.0336 0.0252,-0.05878 0.0252,-0.02519 0.0588,-0.02519 h 0.86076 q 0.0336,0 0.0546,0.02519 0.0252,0.02519 0.0252,0.05878 0,0.02939 -0.0252,0.05458 -0.021,0.02519 -0.0546,0.02519 z m 0,0.453475 q -0.0336,0 -0.0588,-0.02519 -0.0252,-0.02519 -0.0252,-0.05878 0,-0.0336 0.0252,-0.05458 0.0252,-0.02519 0.0588,-0.02519 h 2.01544 q 0.0336,0 0.0588,0.02519 0.0252,0.021 0.0252,0.05458 0,0.0336 -0.0252,0.05878 -0.0252,0.02519 -0.0588,0.02519 z m 0,0.449275 q -0.0336,0 -0.0588,-0.02519 -0.0252,-0.02519 -0.0252,-0.05878 0,-0.0336 0.0252,-0.05459 0.0252,-0.02519 0.0588,-0.02519 h 1.60396 q 0.0336,0 0.0588,0.02519 0.0252,0.021 0.0252,0.05459 0,0.0336 -0.0252,0.05878 -0.0252,0.02519 -0.0588,0.02519 z m 0,0.449277 q -0.0336,0 -0.0588,-0.02519 -0.0252,-0.0252 -0.0252,-0.05878 0,-0.03359 0.0252,-0.05458 0.0252,-0.0252 0.0588,-0.0252 h 2.01544 q 0.0336,0 0.0588,0.0252 0.0252,0.021 0.0252,0.05458 0,0.0336 -0.0252,0.05878 -0.0252,0.02519 -0.0588,0.02519 z m 0,0.449275 q -0.0336,0 -0.0588,-0.021 -0.0252,-0.02519 -0.0252,-0.05878 0,-0.0336 0.0252,-0.05878 0.0252,-0.02519 0.0588,-0.02519 h 1.8097 q 0.0336,0 0.0588,0.02519 0.0252,0.02519 0.0252,0.05878 0,0.0336 -0.0252,0.05878 -0.0252,0.021 -0.0588,0.021 z"
         id="path750"
         style="stroke-width:0.264583" /></g><g
       aria-label="ðŸ—"
       id="text687"
       style="font-size:10.5833px;line-height:1.25;letter-spacing:0px;word-spacing:0px;stroke-width:0.627764"
       transform="matrix(0.42146896,0,0,0.42146896,39.441003,30.36732)"><path
         d="m 104.80716,112.3292 q -0.26458,0 -0.41275,-0.15875 -0.14816,-0.16933 -0.14816,-0.41275 v -6.41348 q 0,-0.24341 0.16933,-0.42333 0.17991,-0.17992 0.42333,-0.17992 h 2.94216 q 0.24341,0 0.41275,0.17992 0.17991,0.17992 0.17991,0.42333 v 0.32809 h 4.80482 q 0.24342,0 0.40217,0.16933 0.16933,0.15875 0.16933,0.40216 v 0.64558 h 2.19074 q 0.16933,0 0.254,0.0847 0.0953,0.0847 0.0953,0.22225 0,0.127 -0.0741,0.26458 l -2.286,4.29682 q -0.19049,0.35983 -0.37041,0.46567 -0.17992,0.10583 -0.48683,0.10583 z m -0.3175,-6.98498 v 6.29707 l 2.22249,-4.18041 q 0.1905,-0.35983 0.37042,-0.46566 0.1905,-0.10584 0.48683,-0.10584 h 5.93723 v -0.64558 q 0,-0.13758 -0.0953,-0.22225 -0.0952,-0.0953 -0.23283,-0.0953 h -5.04823 v -0.58208 q 0,-0.14816 -0.10584,-0.24341 -0.0952,-0.10584 -0.24341,-0.10584 h -2.94216 q -0.13758,0 -0.24342,0.10584 -0.10583,0.0953 -0.10583,0.24341 z m 0.34925,6.74156 h 8.22322 q 0.27517,0 0.40217,-0.0952 0.127,-0.10584 0.26458,-0.35984 l 2.21191,-4.16982 q 0.0741,-0.13758 0.0741,-0.21166 0,-0.11642 -0.23283,-0.11642 H 107.58 q -0.27516,0 -0.40216,0.10583 -0.127,0.0952 -0.26458,0.34925 l -2.21191,4.16982 q -0.0635,0.10584 -0.0635,0.17992 0,0.14816 0.20108,0.14816 z"
         id="path692"
         style="stroke-width:0.627764" /></g><text
       xml:space="preserve"
       style="font-style:normal;font-variant:normal;font-weight:normal;font-stretch:normal;font-size:2.82222px;line-height:1.25;font-family:'DejaVu Sans Mono';-inkscape-font-specification:'DejaVu Sans Mono, Normal';font-variant-ligatures:normal;font-variant-caps:normal;font-variant-numeric:normal;font-variant-east-asian:normal;letter-spacing:0px;word-spacing:0px;fill:#000000;fill-opacity:1;stroke:none;stroke-width:0.264583"
       x="96.216545"
       y="81.103859"
       id="text744"><tspan
         sodipodi:role="line"
         style="font-style:normal;font-variant:normal;font-weight:normal;font-stretch:normal;font-size:2.82222px;font-family:'DejaVu Sans Mono';-inkscape-font-specification:'DejaVu Sans Mono, Normal';font-variant-ligatures:normal;font-variant-caps:normal;font-variant-numeric:normal;font-variant-east-asian:normal;stroke-width:0.264583"
         x="96.216545"
         y="81.103859"
         id="tspan742">002-0-6-fecha-y-hora.csv</tspan></text><text
       xml:space="preserve"
       style="font-style:normal;font-variant:normal;font-weight:normal;font-stretch:normal;font-size:2.82222px;line-height:1.25;font-family:'DejaVu Sans Mono';-inkscape-font-specification:'DejaVu Sans Mono, Normal';font-variant-ligatures:normal;font-variant-caps:normal;font-variant-numeric:normal;font-variant-east-asian:normal;letter-spacing:0px;word-spacing:0px;fill:#000000;fill-opacity:1;stroke:none;stroke-width:0.264583"
       x="96.216545"
       y="85.310158"
       id="text748"><tspan
         sodipodi:role="line"
         style="font-style:normal;font-variant:normal;font-weight:normal;font-stretch:normal;font-size:2.82222px;font-family:'DejaVu Sans Mono';-inkscape-font-specification:'DejaVu Sans Mono, Normal';font-variant-ligatures:normal;font-variant-caps:normal;font-variant-numeric:normal;font-variant-east-asian:normal;stroke-width:0.264583"
         x="96.216545"
         y="85.310158"
         id="tspan746">003-8-9-tension-de-red.csv</tspan></text><path
       style="fill:none;stroke:#000000;stroke-width:0.264583px;stroke-linecap:butt;stroke-linejoin:miter;stroke-opacity:1"
       d="m 85.330971,78.382295 v 6.17555 h 4.66254"
       id="path815"
       sodipodi:nodetypes="ccc" /><path
       style="fill:none;stroke:#000000;stroke-width:0.264583px;stroke-linecap:butt;stroke-linejoin:miter;stroke-opacity:1"
       d="m 85.225761,80.271306 h 4.73454"
       id="path817" /><path
       style="fill:none;stroke:#000000;stroke-width:0.264583px;stroke-linecap:butt;stroke-linejoin:miter;stroke-opacity:1"
       d="m 77.478251,76.27495 h 4.73454"
       id="path870" /><g
       aria-label="ðŸ—"
       id="g874"
       style="font-size:10.5833px;line-height:1.25;letter-spacing:0px;word-spacing:0px;stroke-width:0.627764"
       transform="matrix(0.42146896,0,0,0.42146896,31.591474,25.79485)"><path
         d="m 104.80716,112.3292 q -0.26458,0 -0.41275,-0.15875 -0.14816,-0.16933 -0.14816,-0.41275 v -6.41348 q 0,-0.24341 0.16933,-0.42333 0.17991,-0.17992 0.42333,-0.17992 h 2.94216 q 0.24341,0 0.41275,0.17992 0.17991,0.17992 0.17991,0.42333 v 0.32809 h 4.80482 q 0.24342,0 0.40217,0.16933 0.16933,0.15875 0.16933,0.40216 v 0.64558 h 2.19074 q 0.16933,0 0.254,0.0847 0.0953,0.0847 0.0953,0.22225 0,0.127 -0.0741,0.26458 l -2.286,4.29682 q -0.19049,0.35983 -0.37041,0.46567 -0.17992,0.10583 -0.48683,0.10583 z m -0.3175,-6.98498 v 6.29707 l 2.22249,-4.18041 q 0.1905,-0.35983 0.37042,-0.46566 0.1905,-0.10584 0.48683,-0.10584 h 5.93723 v -0.64558 q 0,-0.13758 -0.0953,-0.22225 -0.0952,-0.0953 -0.23283,-0.0953 h -5.04823 v -0.58208 q 0,-0.14816 -0.10584,-0.24341 -0.0952,-0.10584 -0.24341,-0.10584 h -2.94216 q -0.13758,0 -0.24342,0.10584 -0.10583,0.0953 -0.10583,0.24341 z m 0.34925,6.74156 h 8.22322 q 0.27517,0 0.40217,-0.0952 0.127,-0.10584 0.26458,-0.35984 l 2.21191,-4.16982 q 0.0741,-0.13758 0.0741,-0.21166 0,-0.11642 -0.23283,-0.11642 H 107.58 q -0.27516,0 -0.40216,0.10583 -0.127,0.0952 -0.26458,0.34925 l -2.21191,4.16982 q -0.0635,0.10584 -0.0635,0.17992 0,0.14816 0.20108,0.14816 z"
         id="path872"
         style="stroke-width:0.627764" /></g><text
       xml:space="preserve"
       style="font-style:normal;font-variant:normal;font-weight:normal;font-stretch:normal;font-size:2.82222px;line-height:1.25;font-family:'DejaVu Sans Mono';-inkscape-font-specification:'DejaVu Sans Mono, Normal';font-variant-ligatures:normal;font-variant-caps:normal;font-variant-numeric:normal;font-variant-east-asian:normal;letter-spacing:0px;word-spacing:0px;fill:#000000;fill-opacity:1;stroke:none;stroke-width:0.264583"
       x="81.635803"
       y="72.47187"
       id="text878"><tspan
         sodipodi:role="line"
         style="font-style:normal;font-variant:normal;font-weight:normal;font-stretch:normal;font-size:2.82222px;font-family:'DejaVu Sans Mono';-inkscape-font-specification:'DejaVu Sans Mono, Normal';font-variant-ligatures:normal;font-variant-caps:normal;font-variant-numeric:normal;font-variant-east-asian:normal;stroke-width:0.264583"
         x="81.635803"
         y="72.47187"
         id="tspan876">capturas</tspan></text><text
       xml:space="preserve"
       style="font-style:normal;font-variant:normal;font-weight:normal;font-stretch:normal;font-size:2.82222px;line-height:1.25;font-family:'DejaVu Sans Mono';-inkscape-font-specification:'DejaVu Sans Mono, Normal';font-variant-ligatures:normal;font-variant-caps:normal;font-variant-numeric:normal;font-variant-east-asian:normal;letter-spacing:0px;word-spacing:0px;fill:#000000;fill-opacity:1;stroke:none;stroke-width:0.264583"
       x="89.731026"
       y="93.672691"
       id="text882"><tspan
         sodipodi:role="line"
         style="font-style:normal;font-variant:normal;font-weight:normal;font-stretch:normal;font-size:2.82222px;font-family:'DejaVu Sans Mono';-inkscape-font-specification:'DejaVu Sans Mono, Normal';font-variant-ligatures:normal;font-variant-caps:normal;font-variant-numeric:normal;font-variant-east-asian:normal;stroke-width:0.264583"
         x="89.731026"
         y="93.672691"
         id="tspan880">2023-05-04</tspan></text><g
       aria-label="ðŸ–¹"
       id="g888"
       style="font-size:10.5833px;line-height:1.25;letter-spacing:0px;word-spacing:0px;stroke-width:0.264583"
       transform="translate(-36.982599,16.642664)"><path
         d="m 128.40255,81.97176 v -3.707575 h 1.96506 q 0.17215,0.05878 0.31911,0.146959 0.15116,0.08817 0.25613,0.193147 0.11337,0.104971 0.20155,0.235134 0.0882,0.130165 0.20574,0.377897 v 2.754438 z m 0.10497,-0.109169 h 2.73345 v -2.649468 q -0.0755,-0.06718 -0.14696,-0.113369 -0.0672,-0.05039 -0.19735,-0.09238 -0.10497,-0.02939 -0.23513,-0.04199 -0.12597,-0.0126 -0.21414,-0.01679 l -0.0882,-0.0042 0.008,-0.08817 q 0.0168,-0.14696 0.0127,-0.264527 0,-0.121766 -0.0167,-0.222539 h -1.85589 z m 0.3611,-2.683059 q -0.0336,0 -0.0588,-0.02519 -0.0252,-0.02519 -0.0252,-0.05458 0,-0.0336 0.0252,-0.05878 0.0252,-0.02519 0.0588,-0.02519 h 0.86076 q 0.0336,0 0.0546,0.02519 0.0252,0.02519 0.0252,0.05878 0,0.02939 -0.0252,0.05458 -0.021,0.02519 -0.0546,0.02519 z m 0,0.453474 q -0.0336,0 -0.0588,-0.02519 -0.0252,-0.02519 -0.0252,-0.05878 0,-0.0336 0.0252,-0.05459 0.0252,-0.02519 0.0588,-0.02519 h 2.01544 q 0.0336,0 0.0588,0.02519 0.0252,0.021 0.0252,0.05459 0,0.0336 -0.0252,0.05878 -0.0252,0.02519 -0.0588,0.02519 z m 0,0.449276 q -0.0336,0 -0.0588,-0.02519 -0.0252,-0.02519 -0.0252,-0.05878 0,-0.03359 0.0252,-0.05458 0.0252,-0.02519 0.0588,-0.02519 h 1.60396 q 0.0336,0 0.0588,0.02519 0.0252,0.021 0.0252,0.05458 0,0.0336 -0.0252,0.05878 -0.0252,0.02519 -0.0588,0.02519 z m 0,0.449277 q -0.0336,0 -0.0588,-0.02519 -0.0252,-0.02519 -0.0252,-0.05878 0,-0.0336 0.0252,-0.05459 0.0252,-0.02519 0.0588,-0.02519 h 2.01544 q 0.0336,0 0.0588,0.02519 0.0252,0.021 0.0252,0.05459 0,0.03359 -0.0252,0.05878 -0.0252,0.02519 -0.0588,0.02519 z m 0,0.449275 q -0.0336,0 -0.0588,-0.021 -0.0252,-0.02519 -0.0252,-0.05878 0,-0.0336 0.0252,-0.05878 0.0252,-0.02519 0.0588,-0.02519 h 1.8097 q 0.0336,0 0.0588,0.02519 0.0252,0.02519 0.0252,0.05878 0,0.0336 -0.0252,0.05878 -0.0252,0.021 -0.0588,0.021 z"
         id="path884"
         style="stroke-width:0.264583" /><path
         d="m 128.40255,86.377565 v -3.707576 h 1.96506 q 0.17215,0.05878 0.31911,0.14696 0.15116,0.08817 0.25613,0.193146 0.11337,0.104971 0.20155,0.235135 0.0882,0.130164 0.20574,0.377896 v 2.754439 z m 0.10497,-0.10917 h 2.73345 v -2.649468 q -0.0755,-0.06718 -0.14696,-0.113368 -0.0672,-0.05039 -0.19735,-0.09238 -0.10497,-0.02939 -0.23513,-0.04199 -0.12597,-0.0126 -0.21414,-0.01679 l -0.0882,-0.0042 0.008,-0.08817 q 0.0168,-0.146961 0.0127,-0.264528 0,-0.121766 -0.0167,-0.222539 h -1.85589 z m 0.3611,-2.683059 q -0.0336,0 -0.0588,-0.02519 -0.0252,-0.02519 -0.0252,-0.05458 0,-0.0336 0.0252,-0.05878 0.0252,-0.02519 0.0588,-0.02519 h 0.86076 q 0.0336,0 0.0546,0.02519 0.0252,0.02519 0.0252,0.05878 0,0.02939 -0.0252,0.05458 -0.021,0.02519 -0.0546,0.02519 z m 0,0.453475 q -0.0336,0 -0.0588,-0.02519 -0.0252,-0.02519 -0.0252,-0.05878 0,-0.0336 0.0252,-0.05458 0.0252,-0.02519 0.0588,-0.02519 h 2.01544 q 0.0336,0 0.0588,0.02519 0.0252,0.021 0.0252,0.05458 0,0.0336 -0.0252,0.05878 -0.0252,0.02519 -0.0588,0.02519 z m 0,0.449275 q -0.0336,0 -0.0588,-0.02519 -0.0252,-0.02519 -0.0252,-0.05878 0,-0.0336 0.0252,-0.05459 0.0252,-0.02519 0.0588,-0.02519 h 1.60396 q 0.0336,0 0.0588,0.02519 0.0252,0.021 0.0252,0.05459 0,0.0336 -0.0252,0.05878 -0.0252,0.02519 -0.0588,0.02519 z m 0,0.449277 q -0.0336,0 -0.0588,-0.02519 -0.0252,-0.0252 -0.0252,-0.05878 0,-0.03359 0.0252,-0.05458 0.0252,-0.0252 0.0588,-0.0252 h 2.01544 q 0.0336,0 0.0588,0.0252 0.0252,0.021 0.0252,0.05458 0,0.0336 -0.0252,0.05878 -0.0252,0.02519 -0.0588,0.02519 z m 0,0.449275 q -0.0336,0 -0.0588,-0.021 -0.0252,-0.02519 -0.0252,-0.05878 0,-0.0336 0.0252,-0.05878 0.0252,-0.02519 0.0588,-0.02519 h 1.8097 q 0.0336,0 0.0588,0.02519 0.0252,0.02519 0.0252,0.05878 0,0.0336 -0.0252,0.05878 -0.0252,0.021 -0.0588,0.021 z"
         id="path886"
         style="stroke-width:0.264583" /></g><g
       aria-label="ðŸ—"
       id="g892"
       style="font-size:10.5833px;line-height:1.25;letter-spacing:0px;word-spacing:0px;stroke-width:0.627764"
       transform="matrix(0.42146896,0,0,0.42146896,39.441003,47.009984)"><path
         d="m 104.80716,112.3292 q -0.26458,0 -0.41275,-0.15875 -0.14816,-0.16933 -0.14816,-0.41275 v -6.41348 q 0,-0.24341 0.16933,-0.42333 0.17991,-0.17992 0.42333,-0.17992 h 2.94216 q 0.24341,0 0.41275,0.17992 0.17991,0.17992 0.17991,0.42333 v 0.32809 h 4.80482 q 0.24342,0 0.40217,0.16933 0.16933,0.15875 0.16933,0.40216 v 0.64558 h 2.19074 q 0.16933,0 0.254,0.0847 0.0953,0.0847 0.0953,0.22225 0,0.127 -0.0741,0.26458 l -2.286,4.29682 q -0.19049,0.35983 -0.37041,0.46567 -0.17992,0.10583 -0.48683,0.10583 z m -0.3175,-6.98498 v 6.29707 l 2.22249,-4.18041 q 0.1905,-0.35983 0.37042,-0.46566 0.1905,-0.10584 0.48683,-0.10584 h 5.93723 v -0.64558 q 0,-0.13758 -0.0953,-0.22225 -0.0952,-0.0953 -0.23283,-0.0953 h -5.04823 v -0.58208 q 0,-0.14816 -0.10584,-0.24341 -0.0952,-0.10584 -0.24341,-0.10584 h -2.94216 q -0.13758,0 -0.24342,0.10584 -0.10583,0.0953 -0.10583,0.24341 z m 0.34925,6.74156 h 8.22322 q 0.27517,0 0.40217,-0.0952 0.127,-0.10584 0.26458,-0.35984 l 2.21191,-4.16982 q 0.0741,-0.13758 0.0741,-0.21166 0,-0.11642 -0.23283,-0.11642 H 107.58 q -0.27516,0 -0.40216,0.10583 -0.127,0.0952 -0.26458,0.34925 l -2.21191,4.16982 q -0.0635,0.10584 -0.0635,0.17992 0,0.14816 0.20108,0.14816 z"
         id="path890"
         style="stroke-width:0.627764" /></g><text
       xml:space="preserve"
       style="font-style:normal;font-variant:normal;font-weight:normal;font-stretch:normal;font-size:2.82222px;line-height:1.25;font-family:'DejaVu Sans Mono';-inkscape-font-specification:'DejaVu Sans Mono, Normal';font-variant-ligatures:normal;font-variant-caps:normal;font-variant-numeric:normal;font-variant-east-asian:normal;letter-spacing:0px;word-spacing:0px;fill:#000000;fill-opacity:1;stroke:none;stroke-width:0.264583"
       x="96.216545"
       y="97.746521"
       id="text896"><tspan
         sodipodi:role="line"
         style="font-style:normal;font-variant:normal;font-weight:normal;font-stretch:normal;font-size:2.82222px;font-family:'DejaVu Sans Mono';-inkscape-font-specification:'DejaVu Sans Mono, Normal';font-variant-ligatures:normal;font-variant-caps:normal;font-variant-numeric:normal;font-variant-east-asian:normal;stroke-width:0.264583"
         x="96.216545"
         y="97.746521"
         id="tspan894">002-0-6-fecha-y-hora.csv</tspan></text><text
       xml:space="preserve"
       style="font-style:normal;font-variant:normal;font-weight:normal;font-stretch:normal;font-size:2.82222px;line-height:1.25;font-family:'DejaVu Sans Mono';-inkscape-font-specification:'DejaVu Sans Mono, Normal';font-variant-ligatures:normal;font-variant-caps:normal;font-variant-numeric:normal;font-variant-east-asian:normal;letter-spacing:0px;word-spacing:0px;fill:#000000;fill-opacity:1;stroke:none;stroke-width:0.264583"
       x="96.216545"
       y="101.95282"
       id="text900"><tspan
         sodipodi:role="line"
         style="font-style:normal;font-variant:normal;font-weight:normal;font-stretch:normal;font-size:2.82222px;font-family:'DejaVu Sans Mono';-inkscape-font-specification:'DejaVu Sans Mono, Normal';font-variant-ligatures:normal;font-variant-caps:normal;font-variant-numeric:normal;font-variant-east-asian:normal;stroke-width:0.264583"
         x="96.216545"
         y="101.95282"
         id="tspan898">003-8-9-tension-de-red.csv</tspan></text><path
       style="fill:none;stroke:#000000;stroke-width:0.264583px;stroke-linecap:butt;stroke-linejoin:miter;stroke-opacity:1"
       d="m 85.330971,95.024959 v 6.175551 h 4.66254"
       id="path902"
       sodipodi:nodetypes="ccc" /><path
       style="fill:none;stroke:#000000;stroke-width:0.264583px;stroke-linecap:butt;stroke-linejoin:miter;stroke-opacity:1"
       d="m 85.225761,96.784507 h 4.73454"
       id="path904" /><path
       style="fill:none;stroke:#000000;stroke-width:0.264583px;stroke-linecap:butt;stroke-linejoin:miter;stroke-opacity:1;marker-end:url(#three_dots)"
       d="M 77.583461,90.580497 V 100.99901"
       id="path906"
       sodipodi:nodetypes="cc" /><path
       style="fill:none;stroke:#000000;stroke-width:0.264583px;stroke-linecap:butt;stroke-linejoin:miter;stroke-opacity:1;marker-end:url(#three_dots)"
       d="M 77.583461,73.984806 V 88.013088"
       id="path1716"
       sodipodi:nodetypes="cc" /><path
       style="fill:none;stroke:#000000;stroke-width:0.264583px;stroke-linecap:butt;stroke-linejoin:miter;stroke-opacity:1"
       d="m 77.478251,92.781109 h 4.73454"
       id="path1723" /><text
       xml:space="preserve"
       style="font-style:normal;font-variant:normal;font-weight:normal;font-stretch:normal;font-size:2.82222003px;line-height:1.25;font-family:'DejaVu Sans Mono';-inkscape-font-specification:'DejaVu Sans Mono, Normal';font-variant-ligatures:normal;font-variant-caps:normal;font-variant-numeric:normal;font-variant-east-asian:normal;letter-spacing:0px;word-spacing:0px;fill:#000000;fill-opacity:1;stroke:none;stroke-width:0.264583"
       x="151.90213"
       y="73.83506"
       id="text3306"><tspan
         sodipodi:role="line"
         style="font-style:normal;font-variant:normal;font-weight:normal;font-stretch:normal;font-size:2.82222003px;font-family:'DejaVu Sans Mono';-inkscape-font-specification:'DejaVu Sans Mono, Normal';font-variant-ligatures:normal;font-variant-caps:normal;font-variant-numeric:normal;font-variant-east-asian:normal;stroke-width:0.264583"
         x="151.90213"
         y="73.83506"
         id="tspan3304">...</tspan><tspan
         sodipodi:role="line"
         style="font-style:normal;font-variant:normal;font-weight:normal;font-stretch:normal;font-size:2.82222003px;font-family:'DejaVu Sans Mono';-inkscape-font-specification:'DejaVu Sans Mono, Normal';font-variant-ligatures:normal;font-variant-caps:normal;font-variant-numeric:normal;font-variant-east-asian:normal;stroke-width:0.264583"
         x="151.90213"
         y="77.362839"
         id="tspan3308">14:05:53.535,14061e0b3110</tspan><tspan
         sodipodi:role="line"
         style="font-style:normal;font-variant:normal;font-weight:normal;font-stretch:normal;font-size:2.82222003px;font-family:'DejaVu Sans Mono';-inkscape-font-specification:'DejaVu Sans Mono, Normal';font-variant-ligatures:normal;font-variant-caps:normal;font-variant-numeric:normal;font-variant-east-asian:normal;stroke-width:0.264583"
         x="151.90213"
         y="80.89061"
         id="tspan3310">14:05:54.611,14061e0b3111</tspan><tspan
         sodipodi:role="line"
         style="font-style:normal;font-variant:normal;font-weight:normal;font-stretch:normal;font-size:2.82222003px;font-family:'DejaVu Sans Mono';-inkscape-font-specification:'DejaVu Sans Mono, Normal';font-variant-ligatures:normal;font-variant-caps:normal;font-variant-numeric:normal;font-variant-east-asian:normal;stroke-width:0.264583"
         x="151.90213"
         y="84.418388"
         id="tspan3312">14:05:55.567,14061e0b3112</tspan><tspan
         sodipodi:role="line"
         style="font-style:normal;font-variant:normal;font-weight:normal;font-stretch:normal;font-size:2.82222003px;font-family:'DejaVu Sans Mono';-inkscape-font-specification:'DejaVu Sans Mono, Normal';font-variant-ligatures:normal;font-variant-caps:normal;font-variant-numeric:normal;font-variant-east-asian:normal;stroke-width:0.264583"
         x="151.90213"
         y="87.946159"
         id="tspan3314">14:05:56.552,14061e0b3113</tspan><tspan
         sodipodi:role="line"
         style="font-style:normal;font-variant:normal;font-weight:normal;font-stretch:normal;font-size:2.82222003px;font-family:'DejaVu Sans Mono';-inkscape-font-specification:'DejaVu Sans Mono, Normal';font-variant-ligatures:normal;font-variant-caps:normal;font-variant-numeric:normal;font-variant-east-asian:normal;stroke-width:0.264583"
         x="151.90213"
         y="91.473938"
         id="tspan3316">14:05:57.545,14061e0b3114</tspan><tspan
         sodipodi:role="line"
         style="font-style:normal;font-variant:normal;font-weight:normal;font-stretch:normal;font-size:2.82222003px;font-family:'DejaVu Sans Mono';-inkscape-font-specification:'DejaVu Sans Mono, Normal';font-variant-ligatures:normal;font-variant-caps:normal;font-variant-numeric:normal;font-variant-east-asian:normal;stroke-width:0.264583"
         x="151.90213"
         y="95.001709"
         id="tspan3318">14:05:58.444,14061e0b3115</tspan><tspan
         sodipodi:role="line"
         style="font-style:normal;font-variant:normal;font-weight:normal;font-stretch:normal;font-size:2.82222003px;font-family:'DejaVu Sans Mono';-inkscape-font-specification:'DejaVu Sans Mono, Normal';font-variant-ligatures:normal;font-variant-caps:normal;font-variant-numeric:normal;font-variant-east-asian:normal;stroke-width:0.264583"
         x="151.90213"
         y="98.529488"
         id="tspan3320">14:05:59.447,14061e0b3116</tspan><tspan
         sodipodi:role="line"
         style="font-style:normal;font-variant:normal;font-weight:normal;font-stretch:normal;font-size:2.82222003px;font-family:'DejaVu Sans Mono';-inkscape-font-specification:'DejaVu Sans Mono, Normal';font-variant-ligatures:normal;font-variant-caps:normal;font-variant-numeric:normal;font-variant-east-asian:normal;stroke-width:0.264583"
         x="151.90213"
         y="102.05726"
         id="tspan3322">...</tspan><tspan
         sodipodi:role="line"
         style="font-style:normal;font-variant:normal;font-weight:normal;font-stretch:normal;font-size:2.82222003px;font-family:'DejaVu Sans Mono';-inkscape-font-specification:'DejaVu Sans Mono, Normal';font-variant-ligatures:normal;font-variant-caps:normal;font-variant-numeric:normal;font-variant-east-asian:normal;stroke-width:0.264583"
         x="151.90213"
         y="105.58504"
         id="tspan3324" /></text><path
       id="rect3378"
       style="fill:none;fill-opacity:0.890196;stroke:#000000;stroke-width:0.264583;stroke-opacity:0.976135"
       d="m 149.71671,69.693344 44.3102,0 3.05128,3.30035 v 31.328596 h -47.36148 z"
       sodipodi:nodetypes="cccccc" /><path
       style="fill:none;stroke:#000000;stroke-width:0.264583px;stroke-linecap:butt;stroke-linejoin:miter;stroke-dasharray:0.529166, 0.264583;stroke-dashoffset:0;stroke-opacity:1"
       d="m 138.64852,80.271306 h 11.16091"
       id="path3382"
       sodipodi:nodetypes="cc" /><path
       id="rect4248"
       style="fill:none;fill-opacity:0.890196;stroke:#000000;stroke-width:0.264583;stroke-opacity:0.976135"
       d="m 197.06902,72.939035 h -3.10127 v -3.331682"
       sodipodi:nodetypes="ccc" /></g></svg>
